<svg xmlns="http://www.w3.org/2000/svg" xmlns:xlink="http://www.w3.org/1999/xlink" width="800" height="521.04"><rect width="800" height="521.04" rx="0" ry="0" class="a"/><svg height="521.04" viewBox="0 0 80 52.104" width="800" xmlns="http://www.w3.org/2000/svg" xmlns:xlink="http://www.w3.org/1999/xlink"><style>@keyframes f{0%{transform:translateX(0)}.6%{transform:translateX(-80px)}6.58%{transform:translateX(-160px)}6.86%{transform:translateX(-240px)}9.85%{transform:translateX(-320px)}10.21%{transform:translateX(-400px)}11.71%{transform:translateX(-480px)}13.21%{transform:translateX(-560px)}14.83%{transform:translateX(-640px)}15.12%{transform:translateX(-720px)}16.43%{transform:translateX(-800px)}17.8%{transform:translateX(-880px)}19.4%{transform:translateX(-960px)}19.91%{transform:translateX(-1040px)}20.87%{transform:translateX(-1120px)}24.41%{transform:translateX(-1200px)}24.75%{transform:translateX(-1280px)}25.55%{transform:translateX(-1360px)}26.31%{transform:translateX(-1440px)}28.71%{transform:translateX(-1520px)}31.81%{transform:translateX(-1600px)}33.19%{transform:translateX(-1680px)}38.31%{transform:translateX(-1760px)}39.06%{transform:translateX(-1840px)}45.03%{transform:translateX(-1920px)}50.68%{transform:translateX(-2000px)}52.71%{transform:translateX(-2080px)}56.6%{transform:translateX(-2160px)}58.05%{transform:translateX(-2240px)}64.31%{transform:translateX(-2320px)}66.48%{transform:translateX(-2400px)}68.71%{transform:translateX(-2480px)}75.53%{transform:translateX(-2560px)}80.19%{transform:translateX(-2640px)}81.17%{transform:translateX(-2720px)}85.91%{transform:translateX(-2800px)}89.46%{transform:translateX(-2880px)}89.66%{transform:translateX(-2960px)}89.67%{transform:translateX(-3200px)}89.68%{transform:translateX(-3440px)}89.88%{transform:translateX(-3520px)}to{transform:translateX(-3600px)}}.a{fill:#282d35}.c{fill:#b9c0cb;white-space:pre}</style><g font-family="Monaco,Consolas,Menlo,'Bitstream Vera Sans Mono','Powerline Symbols',monospace" font-size="1.67"><defs><symbol id="1"><text y="1.67" class="c">$</text></symbol><symbol id="2"><text y="1.67" class="c">$</text><text x="2.004" y="1.67" class="c">java</text></symbol><symbol id="3"><text y="1.67" class="c">$</text><text x="2.004" y="1.67" class="c">java</text><text x="7.014" y="1.67" class="c">-jar</text></symbol><symbol id="4"><text y="1.67" class="c">$</text><text x="2.004" y="1.67" class="c">java</text><text x="7.014" y="1.67" class="c">-jar</text><text x="12.024" y="1.67" class="c">target/test</text></symbol><symbol id="5"><text y="1.67" class="c">$</text><text x="2.004" y="1.67" class="c">java</text><text x="7.014" y="1.67" class="c">-jar</text><text x="12.024" y="1.67" class="c">target/tests.pluscodes-0.0.1-jar-with-dependencies.jar</text><text x="67.134" y="1.67" class="c">-23.982528</text></symbol><symbol id="6"><text y="1.67" class="c">$</text><text x="2.004" y="1.67" class="c">java</text><text x="7.014" y="1.67" class="c">-jar</text><text x="12.024" y="1.67" class="c">target/tests.pluscodes-0.0.1-jar-with-dependencies.jar</text><text x="67.134" y="1.67" class="c">-23.982528</text><text x="78.156" y="1.67" class="c">-4</text></symbol><symbol id="7"><text y="1.67" class="c">6.916556</text></symbol><symbol id="8"><text y="1.67" class="c">Tests</text><text x="6.012" y="1.67" class="c">results</text></symbol><symbol id="9"><text y="1.67" class="c">=============</text></symbol><symbol id="10"><text y="1.67" class="c">Latitude:</text><text x="10.02" y="1.67" class="c">-23.982528</text></symbol><symbol id="11"><text y="1.67" class="c">Longitude:</text><text x="11.022" y="1.67" class="c">-46.916556</text></symbol><symbol id="12"><text y="1.67" class="c">Full:</text><text x="6.012" y="1.67" class="c">588M238M+X9</text></symbol><symbol id="13"><text y="1.67" class="c">Within:</text><text x="8.016" y="1.67" class="c">238M+X9</text></symbol><symbol id="14"><text y="1.67" class="c">Shortened:</text><text x="11.022" y="1.67" class="c">+X9</text></symbol><symbol id="a"><path fill="transparent" d="M0 0h80v24H0z"/></symbol><symbol id="b"><path fill="#6f7683" d="M0 0h1.102v2.171H0z"/></symbol></defs><path class="a" d="M0 0h80v52.104H0z"/><g style="animation-duration:27.817302s;animation-iteration-count:infinite;animation-name:f;animation-timing-function:steps(1,end)"><svg width="3680"><svg><use xlink:href="#a"/><use xlink:href="#b" x="-.004"/></svg><svg x="80"><use xlink:href="#a"/><use xlink:href="#b" x="1.996"/><use xlink:href="#1"/></svg><svg x="160"><use xlink:href="#a"/><use xlink:href="#b" x="2.996"/><text y="1.67" class="c">$</text><text x="2.004" y="1.67" class="c">j</text></svg><svg x="240"><use xlink:href="#a"/><use xlink:href="#b" x="3.996"/><text y="1.67" class="c">$</text><text x="2.004" y="1.67" class="c">ja</text></svg><svg x="320"><use xlink:href="#a"/><use xlink:href="#b" x="4.996"/><text y="1.67" class="c">$</text><text x="2.004" y="1.67" class="c">jav</text></svg><svg x="400"><use xlink:href="#a"/><use xlink:href="#b" x="5.996"/><use xlink:href="#2"/></svg><svg x="480"><use xlink:href="#a"/><use xlink:href="#b" x="6.996"/><use xlink:href="#2"/></svg><svg x="560"><use xlink:href="#a"/><use xlink:href="#b" x="7.996"/><text y="1.67" class="c">$</text><text x="2.004" y="1.67" class="c">java</text><text x="7.014" y="1.67" class="c">-</text></svg><svg x="640"><use xlink:href="#a"/><use xlink:href="#b" x="8.996"/><text y="1.67" class="c">$</text><text x="2.004" y="1.67" class="c">java</text><text x="7.014" y="1.67" class="c">-j</text></svg><svg x="720"><use xlink:href="#a"/><use xlink:href="#b" x="9.996"/><text y="1.67" class="c">$</text><text x="2.004" y="1.67" class="c">java</text><text x="7.014" y="1.67" class="c">-ja</text></svg><svg x="800"><use xlink:href="#a"/><use xlink:href="#b" x="10.996"/><use xlink:href="#3"/></svg><svg x="880"><use xlink:href="#a"/><use xlink:href="#b" x="11.996"/><use xlink:href="#3"/></svg><svg x="960"><use xlink:href="#a"/><use xlink:href="#b" x="12.996"/><text y="1.67" class="c">$</text><text x="2.004" y="1.67" class="c">java</text><text x="7.014" y="1.67" class="c">-jar</text><text x="12.024" y="1.67" class="c">t</text></svg><svg x="1040"><use xlink:href="#a"/><use xlink:href="#b" x="13.996"/><text y="1.67" class="c">$</text><text x="2.004" y="1.67" class="c">java</text><text x="7.014" y="1.67" class="c">-jar</text><text x="12.024" y="1.67" class="c">ta</text></svg><svg x="1120"><use xlink:href="#a"/><use xlink:href="#b" x="18.996"/><text y="1.67" class="c">$</text><text x="2.004" y="1.67" class="c">java</text><text x="7.014" y="1.67" class="c">-jar</text><text x="12.024" y="1.67" class="c">target/</text></svg><svg x="1200"><use xlink:href="#a"/><use xlink:href="#b" x="19.996"/><text y="1.67" class="c">$</text><text x="2.004" y="1.67" class="c">java</text><text x="7.014" y="1.67" class="c">-jar</text><text x="12.024" y="1.67" class="c">target/t</text></svg><svg x="1280"><use xlink:href="#a"/><use xlink:href="#b" x="20.996"/><text y="1.67" class="c">$</text><text x="2.004" y="1.67" class="c">java</text><text x="7.014" y="1.67" class="c">-jar</text><text x="12.024" y="1.67" class="c">target/te</text></svg><svg x="1360"><use xlink:href="#a"/><use xlink:href="#b" x="21.996"/><text y="1.67" class="c">$</text><text x="2.004" y="1.67" class="c">java</text><text x="7.014" y="1.67" class="c">-jar</text><text x="12.024" y="1.67" class="c">target/tes</text></svg><svg x="1440"><use xlink:href="#a"/><use xlink:href="#b" x="22.996"/><use xlink:href="#4"/></svg><svg x="1520"><use xlink:href="#a"/><use xlink:href="#b" x="22.996"/><use xlink:href="#4"/></svg><svg x="1600"><use xlink:href="#a"/><use xlink:href="#b" x="23.996"/><text y="1.67" class="c">$</text><text x="2.004" y="1.67" class="c">java</text><text x="7.014" y="1.67" class="c">-jar</text><text x="12.024" y="1.67" class="c">target/tests</text></svg><svg x="1680"><use xlink:href="#a"/><use xlink:href="#b" x="39.996"/><text y="1.67" class="c">$</text><text x="2.004" y="1.67" class="c">java</text><text x="7.014" y="1.67" class="c">-jar</text><text x="12.024" y="1.67" class="c">target/tests.pluscodes-0.0.1</text></svg><svg x="1760"><use xlink:href="#a"/><use xlink:href="#b" x="40.996"/><text y="1.67" class="c">$</text><text x="2.004" y="1.67" class="c">java</text><text x="7.014" y="1.67" class="c">-jar</text><text x="12.024" y="1.67" class="c">target/tests.pluscodes-0.0.1-</text></svg><svg x="1840"><use xlink:href="#a"/><use xlink:href="#b" x="66.996"/><text y="1.67" class="c">$</text><text x="2.004" y="1.67" class="c">java</text><text x="7.014" y="1.67" class="c">-jar</text><text x="12.024" y="1.67" class="c">target/tests.pluscodes-0.0.1-jar-with-dependencies.jar</text></svg><svg x="1920"><use xlink:href="#a"/><use xlink:href="#b" x="76.996"/><use xlink:href="#5"/></svg><svg x="2000"><use xlink:href="#a"/><use xlink:href="#b" x="77.996"/><use xlink:href="#5"/></svg><svg x="2080"><use xlink:href="#a"/><use xlink:href="#b" x="78.996"/><text y="1.67" class="c">$</text><text x="2.004" y="1.67" class="c">java</text><text x="7.014" y="1.67" class="c">-jar</text><text x="12.024" y="1.67" class="c">target/tests.pluscodes-0.0.1-jar-with-dependencies.jar</text><text x="67.134" y="1.67" class="c">-23.982528</text><text x="78.156" y="1.67" class="c">-</text></svg><svg x="2160"><use xlink:href="#a"/><use xlink:href="#b" x="-.004" y="2.146"/><use xlink:href="#6"/></svg><svg x="2240"><use xlink:href="#a"/><use xlink:href="#b" x=".996" y="2.146"/><use xlink:href="#6"/><text y="3.841" class="c">6</text></svg><svg x="2320"><use xlink:href="#a"/><use xlink:href="#b" x="1.996" y="2.146"/><use xlink:href="#6"/><text y="3.841" class="c">6.</text></svg><svg x="2400"><use xlink:href="#a"/><use xlink:href="#b" x="2.996" y="2.146"/><use xlink:href="#6"/><text y="3.841" class="c">6.9</text></svg><svg x="2480"><use xlink:href="#a"/><use xlink:href="#b" x="3.996" y="2.146"/><use xlink:href="#6"/><text y="3.841" class="c">6.91</text></svg><svg x="2560"><use xlink:href="#a"/><use xlink:href="#b" x="4.996" y="2.146"/><use xlink:href="#6"/><text y="3.841" class="c">6.916</text></svg><svg x="2640"><use xlink:href="#a"/><use xlink:href="#b" x="5.996" y="2.146"/><use xlink:href="#6"/><text y="3.841" class="c">6.9165</text></svg><svg x="2720"><use xlink:href="#a"/><use xlink:href="#b" x="6.996" y="2.146"/><use xlink:href="#6"/><text y="3.841" class="c">6.91655</text></svg><svg x="2800"><use xlink:href="#a"/><use xlink:href="#b" x="7.996" y="2.146"/><use xlink:href="#6"/><use xlink:href="#7" y="2.171"/></svg><svg x="2880"><use xlink:href="#a"/><use xlink:href="#b" x="-.004" y="4.317"/><use xlink:href="#6"/><use xlink:href="#7" y="2.171"/></svg><svg x="2960"><use xlink:href="#a"/><use xlink:href="#b" x="-.004" y="6.488"/><use xlink:href="#6"/><use xlink:href="#7" y="2.171"/><use xlink:href="#8" y="4.342"/></svg><svg x="3040"><use xlink:href="#a"/><use xlink:href="#b" x="-.004" y="8.659"/><use xlink:href="#6"/><use xlink:href="#7" y="2.171"/><use xlink:href="#8" y="4.342"/><use xlink:href="#9" y="6.513"/></svg><svg x="3120"><use xlink:href="#a"/><use xlink:href="#b" x="19.996" y="8.659"/><use xlink:href="#6"/><use xlink:href="#7" y="2.171"/><use xlink:href="#8" y="4.342"/><use xlink:href="#9" y="6.513"/><use xlink:href="#10" y="8.684"/></svg><svg x="3200"><use xlink:href="#a"/><use xlink:href="#b" x="-.004" y="13.001"/><use xlink:href="#6"/><use xlink:href="#7" y="2.171"/><use xlink:href="#8" y="4.342"/><use xlink:href="#9" y="6.513"/><use xlink:href="#10" y="8.684"/><use xlink:href="#11" y="10.855"/></svg><svg x="3280"><use xlink:href="#a"/><use xlink:href="#b" x="-.004" y="15.172"/><use xlink:href="#6"/><use xlink:href="#7" y="2.171"/><use xlink:href="#8" y="4.342"/><use xlink:href="#9" y="6.513"/><use xlink:href="#10" y="8.684"/><use xlink:href="#11" y="10.855"/><use xlink:href="#12" y="13.026"/></svg><svg x="3360"><use xlink:href="#a"/><use xlink:href="#b" x="-.004" y="17.343"/><use xlink:href="#6"/><use xlink:href="#7" y="2.171"/><use xlink:href="#8" y="4.342"/><use xlink:href="#9" y="6.513"/><use xlink:href="#10" y="8.684"/><use xlink:href="#11" y="10.855"/><use xlink:href="#12" y="13.026"/><use xlink:href="#13" y="15.197"/></svg><svg x="3440"><use xlink:href="#a"/><use xlink:href="#b" x="-.004" y="19.514"/><use xlink:href="#6"/><use xlink:href="#7" y="2.171"/><use xlink:href="#8" y="4.342"/><use xlink:href="#9" y="6.513"/><use xlink:href="#10" y="8.684"/><use xlink:href="#11" y="10.855"/><use xlink:href="#12" y="13.026"/><use xlink:href="#13" y="15.197"/><use xlink:href="#14" y="17.368"/></svg><svg x="3520"><use xlink:href="#a"/><use xlink:href="#b" x="1.996" y="19.514"/><use xlink:href="#6"/><use xlink:href="#7" y="2.171"/><use xlink:href="#8" y="4.342"/><use xlink:href="#9" y="6.513"/><use xlink:href="#10" y="8.684"/><use xlink:href="#11" y="10.855"/><use xlink:href="#12" y="13.026"/><use xlink:href="#13" y="15.197"/><use xlink:href="#14" y="17.368"/><use xlink:href="#1" y="19.539"/></svg><svg x="3600"><use xlink:href="#a"/><use xlink:href="#b" x="-.004" y="21.685"/><use xlink:href="#6"/><use xlink:href="#7" y="2.171"/><use xlink:href="#8" y="4.342"/><use xlink:href="#9" y="6.513"/><use xlink:href="#10" y="8.684"/><use xlink:href="#11" y="10.855"/><use xlink:href="#12" y="13.026"/><use xlink:href="#13" y="15.197"/><use xlink:href="#14" y="17.368"/><text y="21.209" class="c">$</text><text x="2.004" y="21.209" class="c">exit</text></svg></svg></g></g></svg></svg>